<svg xmlns="http://www.w3.org/2000/svg" version="1.1" viewBox="-5.0 -10.0 110.0 120.0">
<path d="m89.25 41.141c0-9.7148-7.875-17.594-17.594-17.594-9.7148 0-17.594 7.875-17.594 17.594 0 9.7148 7.875 17.594 17.594 17.594s17.594-7.875 17.594-17.594zm-46.254-28.117c4.9375-4.0625 10.582-5.8984 15.137-0.64844 1.7148 1.9766 3.1836 4.8867 4.3828 8.75 0.30859 0.99609-1.1328 1.5547-1.5781 0.60938-1.2617-2.6719-3.2148-5.6133-5.875-6.0977-2.3477-0.42578-4.707 1.1523-6.5586 2.9141l3.6172 3.6406c0.53125 0.53516 0.15234 1.4766-0.65234 1.4453l-12.789-0.26172c-0.46875-0.007812-0.83984-0.39453-0.83203-0.86328l0.039063-12.582c0-0.75781 0.92188-1.1289 1.4492-0.59766zm6.4102-1.8125c-1.8164 0.5625-3.7852 1.7656-5.8984 3.5977-0.33203 0.29688-0.84766 0.28516-1.168-0.035156l-2.7695-2.793-0.03125 9.7148 9.8906 0.20313-2.7305-2.7461c-0.33594-0.32812-0.33984-0.86328-0.015625-1.1992 3.2266-3.3086 7.3945-5.6562 11.387-2.8008-2.0547-3.2617-4.793-5.1406-8.6641-3.9414zm37.324 57.129c2.6406 5.8086 2.957 11.75-3.2969 14.789-2.3516 1.1445-5.543 1.8086-9.5859 1.9648-1.0391 0.039062-1.207-1.4961-0.18359-1.6797 2.9102-0.53125 6.2539-1.6484 7.4102-4.1016 1.0195-2.1602 0.10547-4.8359-1.1133-7.0859l-4.4531 2.5508c-0.64844 0.37109-1.4844-0.22266-1.2188-1.0312l3.5547-12.258c0.12891-0.44531 0.58984-0.70312 1.0352-0.58203v-0.003906l12.156 3.2969c0.72266 0.19531 0.87109 1.1875 0.17578 1.5742zm0.085937 6.6602c-0.074218-1.8906-0.72266-4.0977-1.9336-6.5977-0.22266-0.40625-0.082031-0.91797 0.32422-1.1484l3.4062-1.9492-9.3711-2.543-2.7539 9.4961 3.3672-1.9336c0.40234-0.23047 0.91406-0.09375 1.1523 0.30469 2.3555 3.9805 3.5625 8.5938-0.24219 11.723 3.6836-1.1445 6.2109-3.3125 6.0508-7.3516zm-69.461 4.6875c-5.9805-2.2422-10.398-6.2148-8.125-12.781 0.85547-2.4727 2.6406-5.1992 5.3867-8.168 0.31641-0.34375 0.85156-0.36328 1.1953-0.046875 0.3125 0.28906 0.35938 0.76172 0.12109 1.1016-1.6797 2.4297-3.2578 5.5898-2.3438 8.1406 0.80469 2.2461 3.3477 3.4961 5.8008 4.2188l1.3398-4.9492c0.19922-0.73438 1.2031-0.87109 1.5742-0.16797l6.1719 11.215c0.22266 0.40625 0.078126 0.91406-0.32422 1.1445l-10.93 6.2656c-0.65625 0.375-1.4375-0.23438-1.2422-0.96094zm-4.7773-4.6484c1.3867 1.2812 3.3945 2.3789 6.0078 3.2891 0.48828 0.14844 0.73828 0.59375 0.61328 1.0469l-1.0312 3.7891 8.4219-4.8281-4.7656-8.6641-1.0078 3.7109c-0.125 0.48438-0.58203 0.75-1.0391 0.63672-4.4805-1.1406-8.5938-3.5664-8.1172-8.4648-1.7969 3.418-2.0508 6.7383 0.91797 9.4844zm28.375-33.504c0-7.3594-5.9688-13.328-13.328-13.328s-13.328 5.9648-13.328 13.328c0 7.3594 5.9688 13.328 13.328 13.328s13.328-5.9648 13.328-13.328zm-2.7031-10.625c5.8711 5.8711 5.8711 15.383 0 21.254-5.8711 5.8711-15.383 5.8711-21.254 0-5.8711-5.8672-5.8711-15.383 0-21.254s15.387-5.8711 21.254 0zm25.277 40.594c0 7.3594-5.9688 13.328-13.328 13.328s-13.328-5.9688-13.328-13.328 5.9648-13.328 13.328-13.328c7.3594 0 13.328 5.9688 13.328 13.328zm-2.7031-10.625c5.8672 5.8711 5.8672 15.383 0 21.254-5.8711 5.8711-15.383 5.8711-21.254 0-5.8672-5.8672-5.8672-15.383 0-21.254 5.8711-5.8711 15.387-5.8711 21.254 0zm-15.656 16.68h4.1797v2.7305c0 1.1211 1.6992 1.1211 1.6992 0v-2.7305h4.1797c1.1211 0 1.1211-1.6992 0-1.6992h-4.1797v-2.2461h4.1797c1.1211 0 1.1211-1.6992 0-1.6992h-4.1797v-1.832l6.1055-6.793c0.3125-0.34766 0.28516-0.88672-0.0625-1.1992s-0.88672-0.28516-1.1992 0.0625l-5.6953 6.3359-5.6953-6.3359c-0.3125-0.34766-0.85156-0.375-1.1992-0.0625-0.34766 0.3125-0.375 0.85156-0.0625 1.1992l6.1055 6.793v1.832h-4.1797c-1.1211 0-1.1211 1.6992 0 1.6992h4.1797v2.2461h-4.1797c-1.1172 0-1.1172 1.6992 0.003907 1.6992zm22.742-6.0547c0 9.7812-7.9297 17.711-17.711 17.711s-17.711-7.9297-17.711-17.711 7.9297-17.711 17.711-17.711 17.711 7.9297 17.711 17.711zm-2.5469-12.121c6.1797 7.7227 5.5508 18.855-1.4375 25.848-7.582 7.582-19.871 7.582-27.453 0-7.0039-7.0039-7.6172-18.172-1.4023-25.891-7.2617 3.0391-15.59 1.3359-21.086-4.1602-7.5352-7.5352-7.5352-19.75 0-27.285 7.5352-7.5352 19.75-7.5352 27.285 0 6.9531 6.9531 7.5703 18.035 1.4141 25.707 4.3906-1.8477 9.3672-2.0078 13.887-0.44141-6.1211-7.6758-5.4883-18.723 1.4492-25.66 7.5352-7.5352 19.75-7.5352 27.285 0 7.5352 7.5352 7.5352 19.75 0 27.285-5.1758 5.1719-12.902 7.0273-19.941 4.5977zm-25.301-5.4062c6.8711-6.8711 6.8711-18.008 0-24.879s-18.008-6.8711-24.879 0-6.8711 18.008 0 24.879c6.8711 6.8711 18.012 6.8711 24.879 0zm-18.965-10.066c-1.1211 0-1.1211-1.6992 0-1.6992h1.2344v-1.3477h-1.2344c-1.1211 0-1.1211-1.6992 0-1.6992h1.5469c1.0391-3.5664 4.3242-6.0977 8.1367-6.0977 1.1211 0 1.1211 1.6992 0 1.6992-2.8672 0-5.3672 1.793-6.3438 4.3984h5.6602c1.1211 0 1.1211 1.6992 0 1.6992h-6.0547l-0.003907 1.3477h6.0547c1.1211 0 1.1211 1.6992 0 1.6992h-5.6602c0.97656 2.6055 3.4766 4.3984 6.3438 4.3984 1.1211 0 1.1211 1.6992 0 1.6992-3.8125 0-7.0977-2.5352-8.1367-6.0977zm49.711-12.594c0-1.1211 1.6992-1.1211 1.6992 0v2.0898c2.0664 0.30078 3.7305 1.8086 3.7969 4.0156 0.03125 1.1133-1.6641 1.1641-1.6953 0.046875-0.027344-0.98047-0.58203-1.7148-1.4414-2.1133-2.5273-1.1797-5.1484 1.1992-3.7617 3.3828 0.44531 0.69922 1.2656 1.293 2.4492 1.5781 4.582 1.1133 5.4531 5.8203 2.1055 7.9492-0.4375 0.27734-0.93359 0.46875-1.4531 0.57031v2.1289c0 1.1211-1.6992 1.1211-1.6992 0v-2.0898c-2.0664-0.30078-3.7305-1.8086-3.7969-4.0195-0.03125-1.1133 1.6641-1.1641 1.6953-0.046875 0.027344 0.98047 0.58203 1.7148 1.4414 2.1133 2.5273 1.1797 5.1484-1.1992 3.7617-3.3828-0.44531-0.69922-1.2656-1.293-2.4492-1.5781-4.582-1.1133-5.4531-5.8242-2.1055-7.9492 0.4375-0.27734 0.93359-0.46875 1.4531-0.57031zm14.176 9.8242c0 7.3594-5.9688 13.328-13.328 13.328s-13.328-5.9688-13.328-13.328 5.9688-13.328 13.328-13.328c7.3633 0.003906 13.328 5.9688 13.328 13.328zm-2.6992-10.625c5.8711 5.8711 5.8711 15.383 0 21.254-5.8672 5.8711-15.383 5.8711-21.254 0-5.8711-5.8672-5.8711-15.383 0-21.254s15.383-5.8711 21.254 0z" fill-rule="evenodd"/>
</svg>