<svg xmlns="http://www.w3.org/2000/svg" version="1.1" viewBox="-5.0 -10.0 110.0 120.0">
 <path d="m49.98 13.852c8.3438 0 16.438 1.5508 23.969 4.5391l-5.7383 6.3359c-5.8086-1.9375-11.934-2.957-18.234-2.957-15.383 0-29.812 6.0195-40.688 16.895-1.5508 1.5508-4.082 1.5508-5.6328 0-1.5508-1.5508-1.5508-4.082 0-5.6328 12.391-12.355 28.828-19.184 46.32-19.184z"/>
 <path d="m96.34 38.668c-0.77344 0.77344-1.7969 1.1602-2.8164 1.1602-1.0195 0-2.043-0.38672-2.8164-1.1602-2.4297-2.4297-5.0703-4.6445-7.8125-6.5469l5.3516-5.9492c2.8516 2.043 5.5625 4.3281 8.0938 6.8633 1.5508 1.5508 1.5508 4.082 0 5.6328z"/>
 <path d="m60.824 32.93-6.3008 6.9336c-11.652-1.3398-23.758 2.4648-32.664 11.367-1.5508 1.5508-4.0469 1.5508-5.5977 0s-1.5508-4.0469 0-5.5977c12.074-12.074 29.039-16.332 44.562-12.707z"/>
 <path d="m83.738 51.234c-0.77344 0.77344-1.7969 1.1602-2.7812 1.1602-1.0195 0-2.043-0.38672-2.8164-1.1602-2.2539-2.2539-4.7148-4.1875-7.3555-5.7734l5.4219-5.9844c2.6758 1.7617 5.1758 3.8008 7.5312 6.1602 1.5508 1.5508 1.5508 4.0469 0 5.5977z"/>
 <path d="m28.828 58.203c4.6094-4.6094 10.418-7.4961 16.719-8.4453l-13.727 15.172c-1.0547 0.070312-2.1836-0.31641-2.9922-1.1289-1.5508-1.5508-1.5508-4.0469 0-5.5977z"/>
 <path d="m71.172 63.801c-0.77344 0.77344-1.7969 1.1602-2.8164 1.1602-0.98438 0-2.0078-0.38672-2.7812-1.1602-2.0391-2.0391-4.4688-3.6602-7.0742-4.75l5.5625-6.125c2.6055 1.3711 4.9961 3.168 7.1094 5.2812 1.5508 1.5508 1.5508 4.0469 0 5.5977z"/>
 <path d="m59.449 77.457c0 5.2109-4.2227 9.4336-9.4688 9.4336-4.7539 0-8.6953-3.5195-9.3281-8.0938l9.75-10.805c5.0664 0.24609 9.0469 4.3633 9.0469 9.4688z"/>
 <path d="m21.184 91.578c-0.72656-0.023437-1.4453-0.29297-2.0273-0.81641-1.2969-1.1719-1.3984-3.1758-0.22266-4.4727l69.48-76.82c1.168-1.3008 3.1758-1.4023 4.4727-0.22266 1.2969 1.1719 1.3984 3.1758 0.22266 4.4727l-69.477 76.816c-0.64844 0.71875-1.5508 1.0703-2.4492 1.0391z"/>
 </svg>