<svg xmlns="http://www.w3.org/2000/svg" xmlns:xlink="http://www.w3.org/1999/xlink" version="1.1" x="0px" y="0px" viewBox="0 0 65 65" enable-background="new 0 0 65 65" xml:space="preserve"><path d="M65.3,29.3c0-8-6.5-14.6-14.6-14.6c-0.9,0-2.3,0.2-3.2,0.4C45.8,8.9,40,4.5,33.5,4.5c-6.3,0-11.8,4.1-13.8,10  c-1-0.3-2-0.5-3-0.5c-7.5,0-9.1,6.6-9.4,8.6c-4.4,1.2-7.5,5.2-7.5,9.8c0,5.6,4.5,10.1,10.1,10.1c1.3,0,2.5-0.2,3.7-0.7  c1,1.1,2.3,1.9,3.7,2.4l-2.3,8.1l4.4-1.4c1.5,3.4,4.2,6.2,7.5,8c2.4,1.2,5,1.8,7.5,1.8c5,0,9.8-2.2,13-6.4l0.5-0.6l-0.6-0.5  c-0.1-0.1-4.7-3.6-4.7-3.6l-0.6-0.4l-0.5,0.6c-2.7,3.4-7.4,4.5-11.3,2.5c-1.6-0.8-2.9-2.1-3.8-3.7l5.1-1.7l-12.3-9.7l-1.6,5.6  c-2.2-0.8-3.9-2.5-4.6-4.8l-1.4,0.4c0.2,0.8,0.6,1.5,1,2.2c-0.9,0.3-1.8,0.4-2.7,0.4c-4.7,0-8.6-3.9-8.6-8.6c0-4.1,2.9-7.6,6.9-8.4  l0.6-0.1l0-0.6c0-0.3,0.6-7.7,8-7.7c0.9,0,1.8,0.2,2.6,0.4c-0.2,1-0.3,2.1-0.3,3.2h1.5c0-1.2,0.1-2.3,0.4-3.4C22.4,10,27.6,6,33.5,6  c6.1,0,11.4,4.3,12.7,10.2l0.2,0.7l0.7-0.2c0,0,2.4-0.5,3.6-0.5c7.2,0,13.1,5.9,13.1,13.1c0,6.9-5.3,12.5-12.1,13l1.8-6.3l-4.4,1.4  c-1.5-3.4-4.2-6.2-7.5-7.9c-7-3.6-15.7-1.7-20.5,4.5l-0.4,0.6l0.5,0.5c0,0,0,0,4.7,3.6l0.6,0.4l0.5-0.6c2.7-3.4,7.4-4.5,11.3-2.5  c1.6,0.8,2.9,2.1,3.8,3.7l-5.2,1.7l12.3,9.7l2.1-7.3C59,43.6,65.3,37.2,65.3,29.3z M29.5,53.5c4.3,2.2,9.5,1.2,12.7-2.3l3.5,2.7  c-4.5,5.2-12,6.7-18.2,3.5c-3-1.5-5.4-4-6.8-7.1l4.2-1.4C25.9,50.9,27.5,52.5,29.5,53.5z M20.1,39.6l8.3,6.6l-11.3,3.6L20.1,39.6z   M38.9,34.7c-4.3-2.2-9.5-1.2-12.7,2.3c-0.9-0.7-2.6-2-3.5-2.7c4.5-5.2,12-6.7,18.2-3.5c3,1.5,5.4,4,6.8,7.1l-4.2,1.4  C42.4,37.3,40.8,35.7,38.9,34.7z M48.3,48.6L39.9,42l11.3-3.6L48.3,48.6z"/></svg>