<svg xmlns="http://www.w3.org/2000/svg" version="1.1" viewBox="-5.0 -10.0 110.0 120.0">
 <path d="m36.879 41.629c-0.51172 0.51172-0.82812 1.2188-0.82812 1.9961v18.395c0 0.77734 0.31641 1.4844 0.82812 1.9961 0.51172 0.51172 1.2188 0.82812 1.9961 0.82812h22.25c0.77734 0 1.4844-0.31641 1.9961-0.82812 0.51172-0.51172 0.82812-1.2188 0.82812-1.9961v-18.395c0-0.77734-0.31641-1.4844-0.82812-1.9961-0.51172-0.51172-1.2188-0.82812-1.9961-0.82812h-22.25c-0.77734 0-1.4844 0.31641-1.9961 0.82812zm10.02 5.7656c0.79297-0.79297 1.8906-1.2852 3.1016-1.2852s2.3086 0.49219 3.1016 1.2852c0.79297 0.79297 1.2852 1.8906 1.2852 3.1016 0 0.72266-0.17578 1.4102-0.49219 2.0156-0.24609 0.47656-0.57812 0.89844-0.97266 1.2539v2.8555c0 0.80469-0.32812 1.5352-0.85938 2.0625-0.52734 0.52734-1.2617 0.85938-2.0625 0.85938-0.80469 0-1.5352-0.32812-2.0625-0.85938-0.52734-0.52734-0.85938-1.2617-0.85938-2.0625v-2.8555c-0.39453-0.35156-0.72656-0.77734-0.97266-1.2539-0.3125-0.60547-0.49219-1.2891-0.49219-2.0156 0-1.2109 0.49219-2.3086 1.2852-3.1016zm-26.527-25.176c0.18359 11.781 0.16797 23.629 3.8828 34.965 4.5078 13.762 13.59 23.184 25.746 30.184 12.156-7 21.238-16.422 25.75-30.184 3.7148-11.336 3.6953-23.184 3.8828-34.965l-29.633-10.141zm37.707 1.2422c2.1445 2.1445 3.3555 5.043 3.3555 8.0781v7.3984c1.1719 0.078125 2.2266 0.58594 3.0078 1.3672 0.85156 0.85156 1.3789 2.0234 1.3789 3.3203v18.395c0 1.293-0.52734 2.4688-1.3789 3.3203-0.85156 0.85156-2.0234 1.3789-3.3203 1.3789h-22.246c-1.293 0-2.4688-0.52734-3.3203-1.3789-0.85156-0.85156-1.3789-2.0234-1.3789-3.3203v-18.395c0-1.293 0.52734-2.4688 1.3789-3.3203 0.78125-0.78125 1.8398-1.2891 3.0078-1.3672v-7.3984c0-3.0352 1.2109-5.9336 3.3555-8.0781 2.1445-2.1445 5.043-3.3555 8.0781-3.3555 3.0391 0 5.9375 1.2109 8.082 3.3555zm-10.312 28.191c-0.17969-0.34375-0.28125-0.73828-0.28125-1.1602 0-0.69531 0.28125-1.3242 0.73438-1.7773 0.45703-0.45312 1.0859-0.73438 1.7812-0.73438s1.3242 0.28125 1.7773 0.73438 0.73438 1.082 0.73438 1.7773c0 0.42187-0.10156 0.8125-0.28125 1.1602-0.1875 0.35938-0.45703 0.66406-0.78516 0.89844-0.25781 0.18359-0.39844 0.46875-0.39844 0.76562v3.3008c0 0.28906-0.11719 0.55078-0.30859 0.74219-0.19141 0.19141-0.45312 0.30859-0.74219 0.30859-0.28906 0-0.55078-0.11719-0.74219-0.30859s-0.30859-0.45312-0.30859-0.74219v-3.3008c0-0.33594-0.17578-0.62891-0.4375-0.79297-0.30859-0.23047-0.5625-0.52734-0.74219-0.87109zm-7.3281-20.113c0-2.5469 1.0078-4.9531 2.8086-6.7539 1.8008-1.8008 4.207-2.8086 6.7539-2.8086s4.9531 1.0078 6.7539 2.8086c1.8008 1.8008 2.8086 4.207 2.8086 6.7539v7.3867h-2.7227v-7.3867c0-1.8125-0.73047-3.5508-2.0117-4.832s-3.0195-2.0117-4.832-2.0117-3.5508 0.73047-4.832 2.0117-2.0117 3.0195-2.0117 4.832v7.3867h-2.7227zm14.531 0v7.3867h-9.9414v-7.3867c0-1.3281 0.52344-2.5703 1.4609-3.5078s2.1797-1.4609 3.5078-1.4609 2.5703 0.52344 3.5078 1.4609c0.94141 0.9375 1.4648 2.1836 1.4648 3.5078zm29.086-14.93-32.648-11.176c-0.95703-0.32812-1.8516-0.32812-2.8125 0l-32.648 11.176c-1.4375 0.49219-2.3789 1.9766-2.3477 3.6992 0.44531 23.73-1.2266 54.602 35.52 74.273 0.57031 0.30469 1.1992 0.30469 1.7656 0 36.742-19.672 35.074-50.539 35.52-74.273 0.03125-1.7227-0.90625-3.207-2.3477-3.6992zm-2.5547 5.6367c-0.1875 11.996-0.19531 23.984-3.9727 35.52-4.6172 14.086-13.914 23.922-26.594 31.223l-0.93359 0.53906-0.93359-0.53906c-12.68-7.3008-21.98-17.137-26.594-31.223-3.7773-11.535-3.7852-23.523-3.9727-35.52l-0.019531-1.3594 31.52-10.789 31.523 10.789z"/>
 </svg>