<svg xmlns="http://www.w3.org/2000/svg" version="1.1" viewBox="-5.0 -10.0 110.0 120.0">
 <path d="m86.465 47.93c0-2.6562-1.3867-5.0391-3.6914-6.3477l-13.281-7.5977c1.2695-2.7344 1.9727-5.7812 1.9727-8.9844 0-11.836-9.6289-21.465-21.465-21.465s-21.465 9.6289-21.465 21.465c0 3.2031 0.70312 6.25 1.9727 8.9844l-13.281 7.5977c-2.3047 1.3281-3.6914 3.6914-3.6914 6.3477 0 2.5977 1.3086 4.9219 3.5156 6.25-2.207 1.3281-3.5156 3.6523-3.5156 6.25 0 2.5977 1.3086 4.9219 3.5156 6.25-2.207 1.3281-3.5156 3.6523-3.5156 6.25 0 2.6562 1.3867 5.0391 3.6914 6.3477l27.695 15.84c1.5625 0.89844 3.3203 1.3477 5.0781 1.3477s3.5156-0.44922 5.0781-1.3477l27.695-15.82c2.3047-1.3281 3.6914-3.6914 3.6914-6.3477 0-2.5977-1.3086-4.9219-3.5156-6.25 2.207-1.3281 3.5156-3.6523 3.5156-6.25 0-2.5977-1.3086-4.9219-3.5156-6.25 2.207-1.3477 3.5156-3.6719 3.5156-6.2695zm-36.348-21.289 9.5703-9.5703 3.2227 3.2227-13.848 13.848-10.312-10.312 3.2227-3.2227 6.0352 6.0352c0.625 0.56641 1.543 0.56641 2.1094 0zm31.211 50.098-27.695 15.82c-2.2266 1.2695-5.0195 1.2695-7.2461 0l-27.695-15.82c-1.3867-0.78125-2.207-2.207-2.207-3.8086 0-0.78125 0.19531-1.543 0.56641-2.1875l26.113 14.941c2.0703 1.1914 4.4336 1.8164 6.8359 1.8164s4.7461-0.625 6.8359-1.8164l26.133-14.922c0.37109 0.64453 0.56641 1.3867 0.56641 2.1875 0 1.582-0.82031 3.0078-2.207 3.7891zm0-12.5-2.0508 1.1719-25.645 14.648c-2.2266 1.2695-5.0195 1.2695-7.2461 0l-25.645-14.648-2.0508-1.1719c-1.3867-0.78125-2.207-2.207-2.207-3.8086 0-0.78125 0.19531-1.543 0.56641-2.1875l26.113 14.941c2.0703 1.1914 4.4336 1.8164 6.8359 1.8164s4.7461-0.625 6.8359-1.8164l26.133-14.922c0.37109 0.64453 0.56641 1.3867 0.56641 2.1875 0 1.582-0.82031 3.0078-2.207 3.7891zm0-12.5-27.695 15.82c-2.2266 1.2695-5.0195 1.2695-7.2461 0l-27.695-15.82c-1.3867-0.78125-2.207-2.207-2.207-3.8086 0-1.6016 0.82031-3.0078 2.207-3.8086l13.242-7.5586c2.5195 3.9453 6.2305 6.8945 10.508 8.5156 2.207 0.83984 4.5898 1.3086 7.0508 1.3672h0.019531 0.13672 0.039062 0.11719 0.039062 0.15625 0.15625 0.039062 0.11719 0.039062 0.13672 0.019531c2.4805-0.058593 4.8438-0.54687 7.0508-1.3672 4.2773-1.6211 7.9883-4.5703 10.508-8.5156l13.242 7.5586c1.3867 0.78125 2.207 2.207 2.207 3.8086 0.019531 1.6016-0.80078 3.0273-2.1875 3.8086z"/>
 </svg>